# xmcd
#
# Track frame offsets: 
#        150
#        8427
#        25223
#        48996
#        72113
#        92582
#        116918
#        135434
#        155331
#        172329
#        195393
#        213651
#
# Disc length: 3091 seconds
#
# Revision: 0
# Processed by: cddbd v1.5.2PL0 Copyright (c) Steve Scherf et al.
# Submitted via: ExactAudioCopy v0.95b4
#
DISCID=9c0c110c
DTITLE=Secret Sphere - Archetype
DYEAR=2010
DGENRE=Power Metal
TTITLE0=Pattern Of Thought (Intro)
TTITLE1=Line On Fire
TTITLE2=Death From Above
TTITLE3=The Scars That You Can't See
TTITLE4=More Than Myself
TTITLE5=Future
TTITLE6=Mr. Sin
TTITLE7=Into The Void
TTITLE8=All In A Moment
TTITLE9=Archetype
TTITLE10=Vertigo
TTITLE11=The Look
EXTD=
EXTT0=
EXTT1=
EXTT2=
EXTT3=
EXTT4=
EXTT5=
EXTT6=
EXTT7=
EXTT8=
EXTT9=
EXTT10=
EXTT11=
PLAYORDER=
